<svg width="120" height="16" viewBox="0 0 120 16" fill="none" xmlns="http://www.w3.org/2000/svg">
<g clip-path="url(#clip0_15_288)">
<path d="M14.25 11.56H1.33C0.595461 11.56 0 12.1555 0 12.89V14.18C0 14.9145 0.595461 15.51 1.33 15.51H14.25C14.9845 15.51 15.58 14.9145 15.58 14.18V12.89C15.58 12.1555 14.9845 11.56 14.25 11.56Z" fill="#F3BDD6"/>
<path d="M0 1.33001L0 9.13001C0 9.86455 0.595461 10.46 1.33 10.46H2.62C3.35454 10.46 3.95 9.86455 3.95 9.13001L3.95 1.33001C3.95 0.595468 3.35454 6.67572e-06 2.62 6.67572e-06H1.33C0.595461 6.67572e-06 0 0.595468 0 1.33001Z" fill="#4BD6A1"/>
<path d="M6.26 0C11.4 0 15.58 4.18 15.58 9.32C15.58 9.95 15.07 10.46 14.44 10.46H6.26C5.63 10.46 5.12 9.95 5.12 9.32V1.14C5.13 0.52 5.64 0 6.26 0Z" fill="#358BFC"/>
<path fill-rule="evenodd" clip-rule="evenodd" d="M25.08 4.23999C25.21 4.03999 25.28 3.81999 25.31 3.58999C25.38 2.98999 25.34 2.47999 25.27 2.13999C25.24 2.01999 25.31 1.88999 25.43 1.85999L27.11 1.40999C27.22 1.37999 27.34 1.43999 27.37 1.54999C27.56 2.22999 27.57 2.99999 27.46 3.81999C27.46 3.88999 27.47 3.95999 27.52 3.99999C29.19 5.67999 30.76 6.78999 32.18 7.52999C32.29 7.58999 32.33 7.71999 32.28 7.81999L31.51 9.35999C31.46 9.46999 31.33 9.50999 31.22 9.45999C29.72 8.67999 28.12 7.57999 26.47 5.98999C25.52 7.16999 24.02 8.31999 21.79 9.45999C21.68 9.50999 21.55 9.46999 21.5 9.35999L20.73 7.81999C20.68 7.70999 20.73 7.57999 20.83 7.52999C23.25 6.28999 24.49 5.15999 25.09 4.22999L25.08 4.23999Z" fill="#323232"/>
<path fill-rule="evenodd" clip-rule="evenodd" d="M33.14 13.04C33.14 13.16 33.04 13.26 32.92 13.26H19.98C19.86 13.26 19.76 13.16 19.76 13.04V11.53C19.76 11.41 19.86 11.31 19.98 11.31H32.92C33.04 11.31 33.14 11.41 33.14 11.53V13.04Z" fill="#323232"/>
<path fill-rule="evenodd" clip-rule="evenodd" d="M33.95 6.86999V1.90999C33.95 1.78999 34.05 1.68999 34.17 1.68999H35.89C36.01 1.68999 36.11 1.78999 36.11 1.90999V6.86999C36.11 8.17999 37.17 9.23999 38.48 9.23999H41.33C41.42 9.23999 41.5 9.28999 41.53 9.37999L42.22 11.1C42.28 11.24 42.17 11.4 42.02 11.4H38.48C35.98 11.4 33.95 9.36999 33.95 6.86999Z" fill="#323232"/>
<path fill-rule="evenodd" clip-rule="evenodd" d="M43 1.47999C43 1.35999 43.1 1.25999 43.22 1.25999H44.94C45.06 1.25999 45.16 1.35999 45.16 1.47999V4.27999H46.88C47 4.27999 47.1 4.37999 47.1 4.49999V6.21999C47.1 6.33999 47 6.43999 46.88 6.43999H45.16V13.34C45.16 13.43 45.11 13.51 45.02 13.54L43.3 14.23C43.16 14.29 43 14.18 43 14.03V1.47999Z" fill="#323232"/>
<path fill-rule="evenodd" clip-rule="evenodd" d="M48.18 5.79C48.18 3.41 50.11 1.48 52.49 1.48C54.87 1.48 56.8 3.41 56.8 5.79V7.95C56.8 10.33 54.87 12.26 52.49 12.26C50.11 12.26 48.18 10.33 48.18 7.95V5.79ZM52.49 3.64C51.3 3.64 50.55 4.61 50.55 5.8V7.96C50.55 9.15 51.3 10.12 52.49 10.12C53.68 10.12 54.43 9.15 54.43 7.96V5.8C54.43 4.61 53.68 3.64 52.49 3.64Z" fill="#323232"/>
<path fill-rule="evenodd" clip-rule="evenodd" d="M58.82 14.23C58.68 14.29 58.52 14.18 58.52 14.03V1.47999C58.52 1.35999 58.62 1.25999 58.74 1.25999H60.46C60.58 1.25999 60.68 1.35999 60.68 1.47999V13.34C60.68 13.43 60.63 13.51 60.54 13.54L58.82 14.23Z" fill="#323232"/>
<path fill-rule="evenodd" clip-rule="evenodd" d="M75.73 1.47999C75.73 1.35999 75.63 1.25999 75.51 1.25999H73.79C73.67 1.25999 73.57 1.35999 73.57 1.47999V4.27999H71.85C71.73 4.27999 71.63 4.37999 71.63 4.49999V6.21999C71.63 6.33999 71.73 6.43999 71.85 6.43999H73.57V14.03C73.57 14.18 73.73 14.29 73.87 14.23L75.59 13.54C75.67 13.51 75.73 13.43 75.73 13.34V1.47999Z" fill="#323232"/>
<path fill-rule="evenodd" clip-rule="evenodd" d="M64.3 3.63999H63.01C62.89 3.63999 62.79 3.53999 62.79 3.41999V1.90999C62.79 1.78999 62.89 1.68999 63.01 1.68999H71.63C71.75 1.68999 71.85 1.78999 71.85 1.90999V3.41999C71.85 3.53999 71.75 3.63999 71.63 3.63999H66.46V9.24999H68.19V4.50999C68.19 4.38999 68.29 4.28999 68.41 4.28999H70.13C70.25 4.28999 70.35 4.38999 70.35 4.50999V9.24999H71.64C71.76 9.24999 71.86 9.34999 71.86 9.46999V10.98C71.86 11.1 71.76 11.2 71.64 11.2H63.02C62.9 11.2 62.8 11.1 62.8 10.98V9.46999C62.8 9.34999 62.9 9.24999 63.02 9.24999H64.31V3.63999H64.3Z" fill="#323232"/>
<path fill-rule="evenodd" clip-rule="evenodd" d="M86.03 1.47999C86.03 1.35999 86.13 1.25999 86.25 1.25999H87.97C88.09 1.25999 88.19 1.35999 88.19 1.47999V4.06999H88.84V1.47999C88.84 1.35999 88.94 1.25999 89.06 1.25999H90.78C90.9 1.25999 91 1.35999 91 1.47999V8.34999C91 8.43999 90.95 8.51999 90.86 8.54999L89.14 9.23999C89 9.29999 88.84 9.18999 88.84 9.03999V6.00999H88.19V8.34999C88.19 8.43999 88.14 8.51999 88.05 8.54999L86.33 9.23999C86.19 9.29999 86.03 9.18999 86.03 9.03999V1.47999Z" fill="#323232"/>
<path fill-rule="evenodd" clip-rule="evenodd" d="M88.49 11.83H79.56C79.44 11.83 79.34 11.73 79.34 11.61V10.1C79.34 9.97999 79.44 9.87999 79.56 9.87999H88.62C89.93 9.87999 90.99 10.94 90.99 12.25V13.33C90.99 13.42 90.94 13.5 90.85 13.53L89.13 14.22C88.99 14.28 88.83 14.17 88.83 14.02V12.25C88.83 12.13 88.83 11.82 88.49 11.82V11.83Z" fill="#323232"/>
<path fill-rule="evenodd" clip-rule="evenodd" d="M78.91 3.42H78.05C77.93 3.42 77.83 3.32 77.83 3.2V1.69C77.83 1.57 77.93 1.47 78.05 1.47H85.16C85.28 1.47 85.38 1.57 85.38 1.69V3.2C85.38 3.32 85.28 3.42 85.16 3.42H81.06V7.3H82.14V4.28C82.14 4.16 82.24 4.06 82.36 4.06H84.08C84.2 4.06 84.3 4.16 84.3 4.28V7.3H85.16C85.28 7.3 85.38 7.4 85.38 7.52V8.81C85.38 8.93 85.28 9.03 85.16 9.03H78.05C77.93 9.03 77.83 8.93 77.83 8.81V7.52C77.83 7.4 77.93 7.3 78.05 7.3H78.91V3.42Z" fill="#323232"/>
<path fill-rule="evenodd" clip-rule="evenodd" d="M93.84 4.71C93.84 2.92 95.29 1.48 97.07 1.48H104.18C104.3 1.48 104.4 1.58 104.4 1.7V3.42C104.4 3.54 104.3 3.64 104.18 3.64H97.07C96.47 3.64 95.99 4.12 95.99 4.72H104.18C104.3 4.72 104.4 4.82 104.4 4.94V6.66C104.4 6.78 104.3 6.88 104.18 6.88H95.99V7.96H104.18C104.3 7.96 104.4 8.06 104.4 8.18V9.9C104.4 10.02 104.3 10.12 104.18 10.12H94.05C93.93 10.12 93.83 10.02 93.83 9.9V4.73L93.84 4.71Z" fill="#323232"/>
<path d="M98.37 11.4V10.84C98.37 10.74 98.44 10.65 98.54 10.63L100.26 10.28C100.39 10.25 100.52 10.36 100.52 10.49V11.39H105.48C105.6 11.39 105.7 11.49 105.7 11.61V13.12C105.7 13.24 105.6 13.34 105.48 13.34H92.98C92.86 13.34 92.76 13.24 92.76 13.12V11.61C92.76 11.49 92.86 11.39 92.98 11.39H98.37V11.4Z" fill="#323232"/>
<path fill-rule="evenodd" clip-rule="evenodd" d="M112.88 3.64H107.49C107.37 3.64 107.27 3.54 107.27 3.42V1.7C107.27 1.58 107.37 1.48 107.49 1.48H112.88C114.67 1.48 116.11 2.93 116.11 4.71V7.3C116.11 7.42 116.01 7.52 115.89 7.52H109.21V8.17C109.21 8.77 109.69 9.25 110.29 9.25H115.68C115.8 9.25 115.9 9.35 115.9 9.47V11.19C115.9 11.31 115.8 11.41 115.68 11.41H110.29C108.5 11.41 107.06 9.96 107.06 8.18V5.59C107.06 5.47 107.16 5.37 107.28 5.37H113.96V4.72C113.96 4.12 113.48 3.64 112.88 3.64Z" fill="#323232"/>
<path fill-rule="evenodd" clip-rule="evenodd" d="M117.92 14.24C117.78 14.3 117.62 14.19 117.62 14.04V1.47999C117.62 1.35999 117.72 1.25999 117.84 1.25999H119.56C119.68 1.25999 119.78 1.35999 119.78 1.47999V13.34C119.78 13.43 119.73 13.51 119.64 13.54L117.92 14.23V14.24Z" fill="#323232"/>
</g>
<defs>
<clipPath id="clip0_15_288">
<rect width="119.78" height="15.52" fill="white"/>
</clipPath>
</defs>
</svg>
